<svg height='300px' width='300px' fill="#FFF" xmlns="http://www.w3.org/2000/svg"
  xmlns:xlink="http://www.w3.org/1999/xlink" version="1.1" x="0px" y="0px" viewBox="0 0 100 100"
  style="enable-background:new 0 0 100 100;" xml:space="preserve">
  <style type="text/css">
    .st0 {
      stroke: #000000;
      stroke-linejoin: round;
      stroke-miterlimit: 10;
    }
  </style>
  <path
    d="M20.751,15.326c-0.673,0.481-1.126,1.376-1.126,2.404s0.454,1.923,1.126,2.404c0.673-0.481,1.126-1.376,1.126-2.404  S21.424,15.806,20.751,15.326z">
  </path>
  <path
    d="M79.084,18.025c-0.79,0.697-1.323,1.995-1.323,3.486s0.533,2.789,1.323,3.486c0.79-0.697,1.323-1.995,1.323-3.486  S79.874,18.722,79.084,18.025z">
  </path>
  <path
    d="M63.088,10.09c-0.395,0.349-0.662,0.998-0.662,1.743c0,0.745,0.267,1.395,0.662,1.743c0.395-0.349,0.662-0.998,0.662-1.743  C63.749,11.087,63.483,10.438,63.088,10.09z">
  </path>
  <path
    d="M38.684,6.688c-0.485,0.401-0.813,1.148-0.813,2.006c0,0.858,0.327,1.605,0.813,2.006c0.485-0.401,0.812-1.148,0.812-2.006  C39.496,7.836,39.169,7.089,38.684,6.688z">
  </path>
  <path
    d="M49.87,25.136c-3.426,2.04-5.737,5.841-5.737,10.204s2.311,8.164,5.737,10.204c3.426-2.04,5.737-5.841,5.737-10.204  S53.296,27.177,49.87,25.136z">
  </path>
  <path class="st0" d="M43.813,85.5"></path>
  <path
    d="M80.407,13.39c-4.255,0-7.704,3.449-7.704,7.704c0,2.954,1.665,5.517,4.105,6.81c-0.359,1.055-0.784,2.008-1.265,2.613  c-0.697,0.877-2.113,1.795-3.556,2.561c-1.738-5.323-5.343-9.809-10.047-12.669c0.512-0.896,1.041-1.858,1.455-2.699  c0.352-0.714,0.635-1.653,0.864-2.632c1.816-0.31,3.202-1.882,3.202-3.787c0-2.128-1.725-3.852-3.852-3.852  s-3.852,1.725-3.852,3.852c0,1.598,0.974,2.969,2.36,3.552c-0.183,0.745-0.396,1.424-0.641,1.922  c-0.395,0.803-0.912,1.742-1.414,2.619c-3.067-1.496-6.51-2.338-10.146-2.338c-2.84,0-5.557,0.524-8.074,1.462  c-0.228-0.303-0.437-0.611-0.593-0.926c-0.601-1.212-1.038-3.367-1.317-5.226c1.658-0.714,2.82-2.36,2.82-4.28  c0-2.574-2.086-4.66-4.66-4.66c-2.574,0-4.66,2.086-4.66,4.66c0,2.169,1.489,3.975,3.495,4.495c0.293,2.034,0.804,4.668,1.634,6.342  c0.145,0.292,0.314,0.573,0.494,0.849c-3.59,1.912-6.628,4.73-8.79,8.159c-2.07-0.823-4.433-1.952-5.592-3.121  c-0.613-0.619-1.134-1.52-1.566-2.496c1.478-1.077,2.442-2.816,2.442-4.784c0-3.271-2.651-5.922-5.922-5.922  s-5.922,2.651-5.922,5.922c0,3.137,2.441,5.697,5.526,5.902c0.63,1.522,1.478,3.06,2.601,4.193c1.596,1.611,4.312,2.951,6.591,3.88  c-1.109,2.708-1.725,5.667-1.725,8.77c0,0.554,0.024,1.136,0.074,1.774c-0.343,0.531-0.827,1.129-1.379,1.812  c-2.484,3.073-6.238,7.716-5.011,15.807c0.525,3.463,2.826,5.184,4.857,6.703c1.796,1.344,3.494,2.612,3.84,4.921  c0.213,1.419-0.32,3.311-1.584,5.622c-2.46,4.497,2.478,10.729,2.689,10.992c0.099,0.122,0.244,0.187,0.39,0.187  c0.107,0,0.214-0.034,0.306-0.104c0.215-0.167,0.258-0.476,0.095-0.694c-0.141-0.188-3.402-4.663,0.137-8.242  c2.878-2.91,4.337-5.672,4.337-8.209c0-4.408-2.294-6.713-4.137-8.564c-1.351-1.357-2.518-2.53-2.614-4.214  c-0.079-1.384,0.401-2.569,1.427-3.53c1.327,1.779,3.309,3.663,4.927,5.201c0.589,0.56,1.125,1.069,1.553,1.502  c1.611,1.629,3.555,4.519,3.733,7.305c0.282,4.406-3.501,8.674-3.54,8.717c-0.18,0.199-0.169,0.505,0.023,0.692  c0.193,0.188,0.499,0.188,0.693,0.004c0.19-0.181,4.666-4.481,5.153-9.313c0.207-2.049-0.166-4.3-1.108-6.704  c1.781,0.688,3.638,1.152,5.537,1.382c0.318,0.46,0.542,0.913,0.683,1.381c0.063,0.208,0.112,0.424,0.146,0.649  c0.206,1.366-0.542,2.71-1.487,4.411l-0.373,0.675c-2.466,4.51,3.616,11.602,3.876,11.901c0.176,0.202,0.482,0.23,0.691,0.062  c0.209-0.169,0.248-0.473,0.087-0.688c-0.045-0.061-4.476-6.11-0.944-9.683c2.439-2.466,3.728-5.297,3.728-8.186  c0-0.216-0.01-0.424-0.024-0.626c1.333-0.206,2.642-0.525,3.909-0.954c-1.201,1.915-2.458,4.212-2.086,5.944  c0.813,3.797,6.345,9.96,6.58,10.221c0.169,0.187,0.451,0.218,0.656,0.075c0.207-0.144,0.274-0.418,0.158-0.642  c-0.035-0.067-3.538-6.827-3.443-10.171c0.036-1.305,1.082-3.033,3.022-4.996c1.566-1.584,4.55-5.046,5.858-8.029  c0.403-0.51,0.787-1.04,1.146-1.582c1.25,1.004,1.838,2.285,1.751,3.815c-0.097,1.684-1.263,2.856-2.614,4.214  c-1.843,1.852-4.137,4.156-4.137,8.564c0,2.536,1.459,5.298,4.337,8.208c3.528,3.568,0.276,8.055,0.137,8.244  c-0.162,0.219-0.119,0.527,0.096,0.693c0.219,0.168,0.525,0.129,0.695-0.082c0.212-0.264,5.149-6.496,2.689-10.993  c-1.265-2.312-1.798-4.203-1.585-5.621c0.348-2.309,2.044-3.577,3.841-4.921c2.03-1.52,4.332-3.24,4.857-6.703  c1.228-8.092-2.527-12.735-5.012-15.808c-0.476-0.588-0.892-1.103-1.218-1.572c0.011-0.281,0.019-0.563,0.019-0.847  c0-0.712-0.044-1.414-0.107-2.11c2.039-0.964,4.858-2.549,6.43-4.528c1.064-1.339,1.826-3.207,2.358-4.964  c3.581-0.663,6.296-3.797,6.296-7.57C88.111,16.839,84.662,13.39,80.407,13.39z M60.925,11.553c0-1.213,1.08-2.197,2.412-2.197  c1.332,0,2.412,0.983,2.412,2.197s-1.08,2.197-2.412,2.197C62.005,13.75,60.925,12.767,60.925,11.553z M20.249,21.094  c-1.795,0-3.25-1.588-3.25-3.548c0-1.959,1.455-3.548,3.25-3.548s3.25,1.588,3.25,3.548C23.499,19.506,22.044,21.094,20.249,21.094z   M38.405,11.066c-1.655,0-2.997-1.17-2.997-2.614c0-1.444,1.342-2.614,2.997-2.614c1.655,0,2.997,1.17,2.997,2.614  C41.403,9.895,40.061,11.066,38.405,11.066z M61.521,51.912c0.018,1.618-1.961,4.469-2.325,5.026  c-0.057,0.087-0.115,0.164-0.174,0.231l-0.957-4.863l-0.993,5.05c-0.362-0.111-0.783-0.252-1.279-0.401l-1.005-5.11l-0.913,4.639  c-0.178-0.034-0.358-0.068-0.55-0.099c-0.07-0.011-0.135-0.023-0.208-0.034c-0.158-0.023-0.33-0.042-0.497-0.062  c-0.11-0.013-0.223-0.026-0.334-0.039l-0.776-3.945l-0.756,3.842c-0.285-0.01-0.574-0.019-0.883-0.02  c-0.309,0.001-0.598,0.009-0.883,0.02l-0.756-3.842l-0.776,3.945c-0.112,0.013-0.224,0.025-0.334,0.039  c-0.167,0.02-0.34,0.039-0.497,0.062c-0.072,0.011-0.137,0.023-0.208,0.034c-0.192,0.031-0.372,0.064-0.55,0.099l-0.913-4.639  l-1.005,5.11c-0.497,0.149-0.917,0.29-1.279,0.401l-0.993-5.05l-0.957,4.863c-0.059-0.068-0.117-0.144-0.174-0.231  c-0.365-0.557-2.343-3.408-2.325-5.026c-0.001-0.011,0-0.021,0-0.031c0.001-0.044-0.003-0.091,0.001-0.133  c-0.007-0.5,0.156-0.898,0.6-1.09c0.064-0.027,0.137-0.042,0.205-0.065l1.012,4.107l1.036-4.206c0.374,0.046,0.768,0.116,1.176,0.2  l1.066,4.326l0.947-3.843c0.471,0.123,0.947,0.247,1.425,0.368l0.907,3.68l0.809-3.283c0.604,0.123,1.195,0.221,1.758,0.269  l0.712,2.889l0.712-2.889c0.562-0.048,1.154-0.146,1.758-0.269l0.809,3.283l0.907-3.68c0.478-0.121,0.954-0.246,1.425-0.368  l0.947,3.843l1.066-4.326c0.408-0.085,0.802-0.154,1.176-0.2l1.036,4.206l1.012-4.107c0.068,0.022,0.141,0.037,0.205,0.065  c0.444,0.192,0.607,0.59,0.6,1.09c0.004,0.042,0,0.089,0.001,0.133C61.52,51.891,61.522,51.901,61.521,51.912z M49.915,49.367  c-8.678,0-15.714-5.896-15.714-13.169s7.035-13.169,15.714-13.169c8.679,0,15.714,5.896,15.714,13.169S58.593,49.367,49.915,49.367z   M79.485,25.896c-2.425,0-4.39-2.15-4.39-4.801s1.966-4.801,4.39-4.801c2.425,0,4.39,2.15,4.39,4.801S81.909,25.896,79.485,25.896z">
  </path>
</svg>